<?xml version="1.0" standalone="no"?>
<!DOCTYPE svg PUBLIC "-//W3C//DTD SVG 20010904//EN"
 "http://www.w3.org/TR/2001/REC-SVG-20010904/DTD/svg10.dtd">
<svg version="1.0" xmlns="http://www.w3.org/2000/svg"
 width="512.000000pt" height="512.000000pt" viewBox="0 0 512.000000 512.000000"
 preserveAspectRatio="xMidYMid meet">
<metadata>
Created by potrace 1.14, written by Peter Selinger 2001-2017
</metadata>
<g transform="translate(0.000000,512.000000) scale(0.100000,-0.100000)"
fill="#000000" stroke="none">
<path d="M2418 4845 c-2 -2 -25 -5 -53 -9 -56 -7 -64 -8 -155 -29 -282 -66
-566 -244 -768 -481 -45 -53 -53 -87 -27 -123 8 -12 11 -24 6 -27 -5 -3 -30
-41 -55 -85 -38 -64 -51 -78 -71 -78 -50 0 -70 -26 -108 -140 -20 -59 -39
-123 -42 -142 -3 -19 -8 -37 -10 -41 -4 -7 -10 -46 -24 -163 -8 -71 -7 -202 3
-297 18 -168 80 -368 158 -508 82 -150 98 -186 98 -231 0 -71 -20 -122 -70
-172 -66 -66 -139 -92 -255 -93 -80 0 -97 3 -157 31 -37 17 -86 49 -110 71
-86 79 -167 116 -273 126 -116 10 -235 -33 -318 -117 -87 -87 -129 -198 -121
-319 4 -55 0 -72 -28 -133 -37 -82 -46 -185 -22 -275 71 -266 397 -381 623
-220 l29 20 7 -28 c12 -50 75 -132 136 -177 229 -168 554 -53 628 222 9 34 17
44 46 53 51 17 154 68 203 101 23 15 42 25 42 20 0 -10 -26 -87 -39 -116 -52
-114 -127 -261 -141 -275 -3 -3 -23 -32 -45 -65 -44 -65 -52 -76 -137 -174
-91 -105 -129 -202 -123 -317 6 -102 38 -185 102 -255 141 -157 364 -182 543
-62 30 21 60 36 65 34 27 -10 153 -7 194 4 200 53 327 242 299 447 -4 35 -22
91 -38 125 -23 47 -28 66 -21 80 30 54 78 175 121 301 47 143 60 171 60 137 0
-31 86 -275 130 -370 l40 -87 -27 -56 c-15 -31 -28 -61 -30 -67 -1 -5 -5 -21
-8 -35 -11 -45 -7 -154 8 -202 34 -110 113 -198 223 -250 53 -25 80 -31 147
-33 45 -1 91 1 102 5 14 5 30 -1 57 -21 90 -72 231 -104 340 -79 84 20 138 50
201 110 47 46 57 62 57 90 0 18 -6 41 -14 49 -11 13 -12 26 -1 76 6 33 10 77
9 97 -3 29 2 43 21 62 14 14 25 34 25 46 0 32 -38 99 -89 159 -168 196 -281
381 -355 587 l-24 65 23 -15 c47 -31 191 -104 227 -115 33 -11 39 -18 53 -68
75 -257 390 -370 610 -219 73 51 155 157 155 201 0 11 13 6 48 -16 149 -94
334 -83 475 29 137 110 184 314 108 478 -28 60 -31 78 -28 132 16 231 -152
423 -381 436 -116 7 -216 -29 -317 -116 -101 -86 -193 -120 -306 -113 -93 5
-173 39 -229 94 -84 85 -92 191 -22 310 197 332 260 694 186 1060 -45 224
-160 462 -308 636 -290 341 -685 524 -1128 523 -70 0 -129 -2 -130 -3z"/>
</g>
</svg>
